<?xml version="1.0" encoding="utf-8"?>
<!-- Generator: Adobe Illustrator 25.0.1, SVG Export Plug-In . SVG Version: 6.00 Build 0)  -->
<svg version="1.1" id="Layer_1" xmlns="http://www.w3.org/2000/svg" xmlns:xlink="http://www.w3.org/1999/xlink" x="0px" y="0px"
	 viewBox="0 0 792 612" style="enable-background:new 0 0 792 612;" xml:space="preserve">
<style type="text/css">
	.st0{fill:#478FCC;}
	.st1{fill:#F8B5B7;}
	.st2{stroke:#FFFFFF;stroke-width:2;stroke-miterlimit:10;}
	.st3{fill:#FFFFFF;stroke:#FFFFFF;stroke-width:2;stroke-miterlimit:10;}
	.st4{font-family:'PlayfairDisplay-Bold';}
	.st5{font-size:20px;}
</style>
<g>
	<circle class="st0" cx="396" cy="290.1" r="72.44"/>
	<circle class="st1" cx="396" cy="290.1" r="51.22"/>
	<g>
		<g>
			<polygon class="st2" points="390.17,268.83 324.51,362.54 390.17,362.54 455.82,362.54 			"/>
			<polyline class="st3" points="368.12,315.69 390.17,283.33 419.02,324.57 403.93,314.21 397.12,324.57 386.17,303.95 
				379.96,318.94 375.23,309.77 363.98,322.49 			"/>
		</g>
		<g>
			<polygon class="st2" points="461.33,305.13 421.12,362.54 461.33,362.54 501.55,362.54 			"/>
			<polyline class="st3" points="447.83,333.84 461.33,314.02 479.01,339.28 469.77,332.93 465.6,339.28 458.89,326.65 
				455.08,335.83 452.18,330.21 445.29,338.01 			"/>
		</g>
		<g>
			<polygon class="st2" points="330.67,305.13 290.45,362.54 330.67,362.54 370.88,362.54 			"/>
			<polyline class="st3" points="317.16,333.84 330.67,314.02 348.34,339.28 339.1,332.93 334.93,339.28 328.22,326.65 
				324.41,335.83 321.51,330.21 314.63,338.01 			"/>
		</g>
	</g>
	<text transform="matrix(1 0 0 1 277.3511 389.5229)" class="st0 st4 st5">THE BAREFOOT NOMAD</text>
</g>
</svg>
